<svg width="347" height="170" viewBox="0 0 347 170" fill="none" xmlns="http://www.w3.org/2000/svg">
<rect width="347" height="170" fill="white"/>
<g clip-path="url(#clip0_701_83)">
<path d="M36.3573 9.4C28.824 9.4 22.8573 12.5333 18.4573 18.8C14.0573 25.0667 11.8573 34.1333 11.8573 46C11.8573 60.4 15.1573 69.7 21.7573 73.9C23.7573 75.1667 25.5906 76 27.2573 76.4C28.9906 76.7333 30.8906 76.9 32.9573 76.9C39.5573 76.9 46.4573 76.1 53.6573 74.5L53.9573 75.9C52.824 76.3 49.7906 76.8333 44.8573 77.5C39.9906 78.1 36.024 78.4 32.9573 78.4C29.8906 78.4 27.224 78.2 24.9573 77.8C22.6906 77.3333 20.2906 76.4 17.7573 75C15.224 73.6 13.0573 71.7667 11.2573 69.5C9.52396 67.1667 8.0573 64 6.8573 60C5.6573 56 5.0573 51.3333 5.0573 46C5.0573 34.2 7.7573 25 13.1573 18.4C18.824 11.4667 26.5573 8 36.3573 8C39.3573 8 42.5906 8.3 46.0573 8.9C49.5906 9.43333 52.0906 9.96666 53.5573 10.5L54.7573 24.9L52.8573 25.6L51.5573 14.9C46.1573 11.2333 41.0906 9.4 36.3573 9.4ZM74.9763 32.1V40.1C80.243 32.3667 85.4096 28.4333 90.4763 28.3C90.8763 28.3 91.2763 28.3 91.6763 28.3L97.2763 29L94.6763 35C93.4096 33.7333 91.7763 33.1 89.7763 33.1C84.9096 33.1667 79.9763 36.4 74.9763 42.8V76L83.4763 76.5C83.4763 76.5667 83.443 77.0667 83.3763 78L62.3763 78.1C62.3763 77.5 62.4096 77.0333 62.4763 76.7L67.6763 76C68.2096 75.9333 68.4763 75.4667 68.4763 74.6V31.2C68.343 30.7333 68.143 30.5 67.8763 30.5L61.8763 30.3L61.9763 28.9C65.5763 28.3 68.3096 28 70.1763 28C72.043 28 73.3096 28.4333 73.9763 29.3C74.643 30.1667 74.9763 31.1 74.9763 32.1ZM122.82 78.4C115.886 78.4 110.253 76.4 105.92 72.4C101.653 68.4 99.5195 62.3 99.5195 54.1C99.5195 45.8333 101.786 39.3667 106.32 34.7C110.92 29.9667 116.686 27.6 123.62 27.6C130.553 27.6 136.186 29.6 140.52 33.6C144.853 37.6 147.02 43.7333 147.02 52C147.02 60.2 144.72 66.6667 140.12 71.4C135.586 76.0667 129.82 78.4 122.82 78.4ZM123.52 29.4C118.52 29.4 114.353 31.5667 111.02 35.9C107.686 40.2333 106.02 46.1333 106.02 53.6C106.02 61 107.586 66.7 110.72 70.7C113.92 74.6333 118.02 76.6 123.02 76.6C128.02 76.6 132.186 74.4333 135.52 70.1C138.853 65.7667 140.52 59.9 140.52 52.5C140.52 45.1 138.92 39.4 135.72 35.4C132.586 31.4 128.52 29.4 123.52 29.4ZM286.333 7.09999V72.8C286.333 74.8667 286.866 75.9 287.933 75.9L293.933 76.2L293.833 77.7C290.633 78.2333 287.299 78.5 283.833 78.5C283.099 78.4333 282.299 78.0667 281.433 77.4C280.633 76.7333 280.166 75.8667 280.033 74.8C276.233 77.2 271.833 78.4 266.833 78.4C261.966 78.4 257.466 77.0333 253.333 74.3C250.999 72.7667 249.099 70.3667 247.633 67.1C246.233 63.7667 245.533 59.7333 245.533 55C245.533 46.2667 247.766 39.6 252.233 35C256.966 30.0667 262.366 27.6 268.433 27.6C272.166 27.6 275.966 28.5667 279.833 30.5V6.6C279.833 5.86666 279.633 5.5 279.233 5.5L273.133 5.29999L273.233 3.89999C277.433 3.29999 280.299 2.99999 281.833 2.99999C283.433 2.99999 284.566 3.43333 285.233 4.3C285.966 5.16666 286.333 6.1 286.333 7.09999ZM268.133 76.6C272.199 76.6 276.099 75.7 279.833 73.9V32.1C276.899 30.3 273.999 29.4 271.133 29.4C265.399 29.4 260.766 31.6 257.233 36C253.766 40.4 252.033 46.7 252.033 54.9C252.033 69.3667 257.399 76.6 268.133 76.6Z" fill="black"/>
<path d="M241.529 28C241.529 28.0667 241.563 28.5667 241.629 29.5L235.829 30.1L232.229 30.9L214.329 78H208.329L196.629 38.4L183.129 78H177.129L161.529 31.3C161.129 30.5667 160.629 30.1667 160.029 30.1L154.829 29.6C154.763 29.2 154.729 28.7 154.729 28.1L175.729 28C175.729 28.0667 175.763 28.5667 175.829 29.5L168.629 30L182.129 74.8L196.729 28.5L200.129 28L212.829 76.4L228.529 31.6C228.729 31.2 228.629 30.8667 228.229 30.6C227.829 30.3333 227.363 30.1667 226.829 30.1L221.629 29.6C221.563 29.2 221.529 28.7 221.529 28.1L241.529 28Z" fill="#FF9B1F"/>
<path d="M100.997 92.4C93.4633 92.4 87.4966 95.5333 83.0966 101.8C78.6966 108.067 76.4966 117.133 76.4966 129C76.4966 143.4 79.7966 152.7 86.3966 156.9C88.3966 158.167 90.2299 159 91.8966 159.4C93.6299 159.733 95.5299 159.9 97.5966 159.9C104.197 159.9 111.097 159.1 118.297 157.5L118.597 158.9C117.463 159.3 114.43 159.833 109.497 160.5C104.63 161.1 100.663 161.4 97.5966 161.4C94.5299 161.4 91.8633 161.2 89.5966 160.8C87.3299 160.333 84.9299 159.4 82.3966 158C79.8633 156.6 77.6966 154.767 75.8966 152.5C74.1633 150.167 72.6966 147 71.4966 143C70.2966 139 69.6966 134.333 69.6966 129C69.6966 117.2 72.3966 108 77.7966 101.4C83.4633 94.4667 91.1966 91 100.997 91C103.997 91 107.23 91.3 110.697 91.9C114.23 92.4333 116.73 92.9667 118.197 93.5L119.397 107.9L117.497 108.6L116.197 97.9C110.797 94.2333 105.73 92.4 100.997 92.4ZM139.616 115.1V123.1C144.882 115.367 150.049 111.433 155.116 111.3C155.516 111.3 155.916 111.3 156.316 111.3L161.916 112L159.316 118C158.049 116.733 156.416 116.1 154.416 116.1C149.549 116.167 144.616 119.4 139.616 125.8V159L148.116 159.5C148.116 159.567 148.082 160.067 148.016 161L127.016 161.1C127.016 160.5 127.049 160.033 127.116 159.7L132.316 159C132.849 158.933 133.116 158.467 133.116 157.6V114.2C132.982 113.733 132.782 113.5 132.516 113.5L126.516 113.3L126.616 111.9C130.216 111.3 132.949 111 134.816 111C136.682 111 137.949 111.433 138.616 112.3C139.282 113.167 139.616 114.1 139.616 115.1ZM251.868 157.2H251.568C245.568 160 239.735 161.4 234.068 161.4C225.202 161.4 220.502 157.9 219.968 150.9C219.902 150.433 219.868 150 219.868 149.6C219.868 144.467 223.235 141.033 229.968 139.3C233.968 138.433 241.168 137.4 251.568 136.2V127.4C251.568 124.6 251.235 122.2 250.568 120.2C249.902 118.2 249.168 116.733 248.368 115.8C247.568 114.8 246.535 114.033 245.268 113.5C243.668 112.833 241.868 112.5 239.868 112.5C237.935 112.5 235.702 113 233.168 114C229.502 115.533 226.235 117.467 223.368 119.8L222.968 127.6L221.068 128.1V116L222.068 115.6C227.268 113.333 231.235 111.967 233.968 111.5C236.702 111.033 238.702 110.8 239.968 110.8C241.235 110.733 242.435 110.733 243.568 110.8C244.768 110.867 246.302 111.167 248.168 111.7C250.035 112.233 251.635 113 252.968 114C254.368 114.933 255.568 116.367 256.568 118.3C257.568 120.233 258.068 122.533 258.068 125.2V155.8C258.068 157.867 258.602 158.9 259.668 158.9L265.768 159.2L265.668 160.7C261.935 161.233 258.602 161.5 255.668 161.5C254.868 161.433 254.035 161.033 253.168 160.3C252.302 159.5 251.868 158.467 251.868 157.2ZM235.868 159.8C240.802 159.8 246.035 158.067 251.568 154.6V138.1C241.568 138.433 235.268 139.033 232.668 139.9C230.135 140.7 228.368 142 227.368 143.8C226.435 145.533 225.968 147.267 225.968 149C225.968 149.333 225.968 149.667 225.968 150C226.168 153.467 227.202 155.967 229.068 157.5C230.935 159.033 233.202 159.8 235.868 159.8ZM290.284 159.1L294.184 158.9L294.484 159.9C294.418 159.9 293.951 160 293.084 160.2C291.084 160.667 288.851 160.9 286.384 160.9C284.118 160.767 282.051 160.4 280.184 159.8C278.318 159.133 276.584 157.8 274.984 155.8C273.384 153.733 272.584 151.1 272.584 147.9V112.8H267.484L268.284 112L272.684 111.1L273.484 101.5L279.084 101V111H291.184V112.8H279.084V146.2C279.084 151.267 280.151 154.7 282.284 156.5C284.418 158.233 287.084 159.1 290.284 159.1ZM304.717 138C304.717 152.4 310.317 159.6 321.517 159.6C324.451 159.6 327.584 159.3 330.917 158.7C334.251 158.033 336.384 157.433 337.317 156.9L338.017 157.9C336.484 158.9 333.951 159.733 330.417 160.4C326.951 161.067 323.751 161.4 320.817 161.4C317.951 161.4 315.351 161.1 313.017 160.5C310.751 159.9 308.417 158.833 306.017 157.3C303.617 155.767 301.717 153.367 300.317 150.1C298.917 146.833 298.217 142.833 298.217 138.1C298.217 129.3 300.484 122.567 305.017 117.9C309.751 113.033 315.251 110.6 321.517 110.6C327.784 110.6 332.551 112.333 335.817 115.8C339.151 119.267 340.817 124.133 340.817 130.4C340.817 131.733 340.717 133.167 340.517 134.7H304.817C304.751 135.433 304.717 136.533 304.717 138ZM334.917 129.7C334.917 124.7 333.817 120.633 331.617 117.5C329.417 114.3 326.417 112.7 322.617 112.7C317.684 112.7 313.517 114.867 310.117 119.2C307.384 122.6 305.684 127.133 305.017 132.8H334.817C334.884 132.067 334.917 131.033 334.917 129.7Z" fill="black"/>
<path d="M176.616 138C176.616 152.4 182.216 159.6 193.416 159.6C196.349 159.6 199.483 159.3 202.816 158.7C206.149 158.033 208.283 157.433 209.216 156.9L209.916 157.9C208.383 158.9 205.849 159.733 202.316 160.4C198.849 161.067 195.649 161.4 192.716 161.4C189.849 161.4 187.249 161.1 184.916 160.5C182.649 159.9 180.316 158.833 177.916 157.3C175.516 155.767 173.616 153.367 172.216 150.1C170.816 146.833 170.116 142.833 170.116 138.1C170.116 129.3 172.383 122.567 176.916 117.9C181.649 113.033 187.149 110.6 193.416 110.6C199.683 110.6 204.449 112.333 207.716 115.8C211.049 119.267 212.716 124.133 212.716 130.4C212.716 131.733 212.616 133.167 212.416 134.7H176.716C176.649 135.433 176.616 136.533 176.616 138ZM206.816 129.7C206.816 124.7 205.716 120.633 203.516 117.5C201.316 114.3 198.316 112.7 194.516 112.7C189.583 112.7 185.416 114.867 182.016 119.2C179.283 122.6 177.583 127.133 176.916 132.8H206.716C206.783 132.067 206.816 131.033 206.816 129.7Z" fill="#FF9B1F"/>
</g>
<defs>
<clipPath id="clip0_701_83">
<rect width="347" height="165" fill="white"/>
</clipPath>
</defs>
</svg>
