<svg width="60" height="26" viewBox="0 0 60 26" fill="none" xmlns="http://www.w3.org/2000/svg">
<path d="M52.7862 19.6103V13.7862H54.393C56.0992 13.7862 57.2456 14.9842 57.2456 16.6983V16.7259C57.2456 18.44 56.0992 19.6103 54.393 19.6103H52.7862V19.6103ZM50.7099 21.5271H54.4021C57.372 21.5271 59.4302 19.4168 59.4302 16.6983V16.6706C59.4302 13.9521 57.372 11.8694 54.4021 11.8694H50.7099V21.5271ZM40.0308 21.5271H42.089V15.3897L46.6658 21.5271H48.4351V11.8786H46.3769V17.8226L41.9445 11.8786H40.0217V21.5271H40.0308ZM33.1701 19.7394C31.491 19.7394 30.3085 18.3571 30.3085 16.7075V16.6799C30.3085 15.0211 31.473 13.6756 33.143 13.6756C34.8221 13.6756 36.0046 15.0579 36.0046 16.7075V16.7351C36.0046 18.3847 34.8491 19.7394 33.1701 19.7394ZM33.143 21.693C36.0588 21.693 38.1802 19.4445 38.1802 16.6983V16.6706C38.1802 13.9245 36.0859 11.7036 33.1701 11.7036C30.2543 11.7036 28.1329 13.9521 28.1329 16.6983V16.7259C28.1329 19.4721 30.2272 21.693 33.143 21.693ZM22.3465 21.5271H24.4227V17.6751L28.0607 11.8694H25.6956L23.4027 15.7491L21.1459 11.8694H18.7175L22.3555 17.7212V21.5271H22.3465ZM10.6382 21.5271H17.8419V19.638H12.7054V17.6106H17.1649V15.7215H12.7054V13.7586H17.7697V11.8694H10.6382V21.5271V21.5271ZM2.91092 19.6656V17.5461H5.31215C6.37736 17.5461 6.85581 17.9424 6.85581 18.5967V18.6243C6.85581 19.3431 6.30515 19.6749 5.38437 19.6749H2.91092V19.6656ZM2.91092 15.7767V13.7309H4.96912C5.84476 13.7309 6.33223 14.0903 6.33223 14.7262V14.7538C6.33223 15.4726 5.75449 15.7767 4.83371 15.7767H2.91092V15.7767ZM0.879801 21.5271H5.38437C7.51479 21.5271 8.92303 20.6425 8.92303 18.8823V18.8547C8.92303 17.5553 8.24599 16.9102 7.1537 16.4863C7.83074 16.0993 8.39946 15.4911 8.39946 14.4037V14.376C8.39946 13.7125 8.1828 13.178 7.7495 12.7357C7.20787 12.1828 6.35931 11.8786 5.27605 11.8786H0.888827V21.5271H0.879801Z" fill="#E96809"/>
<path d="M16.4969 10.2106C17.535 10.2106 18.1488 9.6485 18.6182 9.02185V10.0724H20.6764V2.68167H18.6182V6.81016C18.6182 7.80542 18.1217 8.31227 17.3364 8.31227C16.551 8.31227 16.0906 7.80542 16.0906 6.81016V2.68167H14.0324V7.46445C14.0324 9.16008 14.9351 10.2106 16.4969 10.2106ZM10.1056 10.0724H12.1548V0H10.0966V10.0724H10.1056ZM4.67122 8.43207C3.71434 8.43207 2.91092 7.62112 2.91092 6.38625V6.35861C2.91092 5.13296 3.70531 4.3128 4.67122 4.3128C5.63713 4.3128 6.44055 5.12375 6.44055 6.35861V6.38625C6.44055 7.63033 5.6281 8.43207 4.67122 8.43207ZM5.1948 10.2106C6.90996 10.2106 8.48972 8.85598 8.48972 6.38625V6.35861C8.48972 3.88889 6.88288 2.53423 5.1948 2.53423C4.12959 2.53423 3.43449 3.04107 2.938 3.73223V0H0.879797V10.0724H2.938V9.10479C3.42547 9.70379 4.10251 10.2106 5.1948 10.2106Z" fill="#E96809"/>
<path d="M43.8493 24.8631H44.2284L44.5263 23.9139L44.8152 24.8631H45.2033L45.6728 23.3149H45.2485L45.0047 24.2549L44.7159 23.3149H44.3458L44.0659 24.2549L43.8222 23.3241H43.3889L43.8493 24.8631ZM42.4591 24.5129C42.2244 24.5129 42.0619 24.3194 42.0619 24.089V24.0798C42.0619 23.8494 42.2063 23.6559 42.45 23.6559C42.6848 23.6559 42.8472 23.8586 42.8472 24.0798V24.089C42.8472 24.3194 42.7028 24.5129 42.4591 24.5129ZM42.45 24.8907C42.9195 24.8907 43.2715 24.5313 43.2715 24.089V24.0798C43.2715 23.6374 42.9285 23.2872 42.4591 23.2872C41.9897 23.2872 41.6376 23.6466 41.6376 24.089V24.0982C41.6376 24.5405 41.9897 24.8907 42.45 24.8907ZM40.5814 24.8538H41.0057V24.2917C41.0057 23.9231 41.1772 23.748 41.4661 23.748H41.4841V23.2872C41.2314 23.278 41.0869 23.4163 41.0057 23.6282V23.3149H40.5814V24.8538V24.8538ZM39.3989 24.8538H39.8231V24.2917C39.8231 23.9231 39.9946 23.748 40.2835 23.748H40.3016V23.2872C40.0488 23.278 39.9044 23.4163 39.8231 23.6282V23.3149H39.3989V24.8538V24.8538ZM38.2795 24.5129C38.0448 24.5129 37.8823 24.3194 37.8823 24.089V24.0798C37.8823 23.8494 38.0267 23.6559 38.2705 23.6559C38.5052 23.6559 38.6677 23.8586 38.6677 24.0798V24.089C38.6677 24.3194 38.5232 24.5129 38.2795 24.5129ZM38.2705 24.8907C38.7399 24.8907 39.0919 24.5313 39.0919 24.089V24.0798C39.0919 23.6374 38.7489 23.2872 38.2795 23.2872C37.8101 23.2872 37.458 23.6466 37.458 24.089V24.0982C37.458 24.5405 37.8101 24.8907 38.2705 24.8907ZM34.8582 24.8538H35.2825V23.9968C35.2825 23.7941 35.3817 23.6835 35.5442 23.6835C35.7067 23.6835 35.797 23.7941 35.797 23.9968V24.8538H36.2213V23.9968C36.2213 23.7941 36.3206 23.6835 36.4831 23.6835C36.6456 23.6835 36.7358 23.7941 36.7358 23.9968V24.8538H37.1601V23.8494C37.1601 23.4808 36.9705 23.2872 36.6546 23.2872C36.447 23.2872 36.2935 23.3702 36.1581 23.5268C36.0768 23.3702 35.9324 23.2872 35.7338 23.2872C35.5172 23.2872 35.3908 23.407 35.2915 23.5361V23.3149H34.8672V24.8538H34.8582ZM33.7388 24.5129C33.5041 24.5129 33.3416 24.3194 33.3416 24.089V24.0798C33.3416 23.8494 33.486 23.6559 33.7298 23.6559C33.9645 23.6559 34.127 23.8586 34.127 24.0798V24.089C34.127 24.3194 33.9825 24.5129 33.7388 24.5129ZM33.7298 24.8907C34.1992 24.8907 34.5512 24.5313 34.5512 24.089V24.0798C34.5512 23.6374 34.2082 23.2872 33.7388 23.2872C33.2694 23.2872 32.9173 23.6466 32.9173 24.089V24.0982C32.9173 24.5405 33.2694 24.8907 33.7298 24.8907ZM32.3757 24.8815C32.5201 24.8815 32.6194 24.8446 32.7097 24.7893V24.4392C32.6465 24.476 32.5743 24.4945 32.5021 24.4945C32.4028 24.4945 32.3667 24.4484 32.3667 24.347V23.6927H32.7187V23.3149H32.3667V22.9186H31.9424V23.3149H31.7618V23.6927H31.9424V24.4207C31.9334 24.7709 32.1139 24.8815 32.3757 24.8815ZM29.8481 24.3654C29.6405 24.3654 29.478 24.218 29.478 24.006V23.9968C29.478 23.7849 29.6314 23.6374 29.8481 23.6374C30.0557 23.6374 30.2182 23.7849 30.2182 23.9968V24.006C30.2182 24.218 30.0557 24.3654 29.8481 24.3654ZM29.8029 25.3238C30.0918 25.3238 30.3085 25.2593 30.4529 25.1211C30.5793 24.9921 30.6425 24.7893 30.6425 24.5129V23.3241H30.2092V23.5268C30.0918 23.3978 29.9564 23.2965 29.7217 23.2965C29.3787 23.2965 29.0537 23.5545 29.0537 24.0153V24.0245C29.0537 24.4852 29.3696 24.7433 29.7217 24.7433C29.9474 24.7433 30.0918 24.6511 30.2182 24.4945V24.5682C30.2182 24.8446 30.0828 24.9921 29.7849 24.9921C29.5863 24.9921 29.4328 24.9368 29.2794 24.8538L29.1349 25.1856C29.3245 25.2593 29.5502 25.3238 29.8029 25.3238ZM27.3746 24.8538H27.7989V23.9968C27.7989 23.7941 27.9072 23.6835 28.0697 23.6835C28.2322 23.6835 28.3315 23.7941 28.3315 23.9968V24.8538H28.7558V23.8586C28.7558 23.5084 28.5662 23.2872 28.2412 23.2872C28.0246 23.2872 27.8982 23.407 27.7989 23.5361V23.3149H27.3746V24.8538ZM26.5441 24.8538H26.9684V23.3149H26.5441V24.8538ZM26.5261 23.149H26.9774V22.762H26.5261V23.149ZM25.8671 24.8815C26.0115 24.8815 26.1108 24.8446 26.2011 24.7893V24.4392C26.1379 24.476 26.0657 24.4945 25.9935 24.4945C25.8942 24.4945 25.8581 24.4484 25.8581 24.347V23.6927H26.2101V23.3149H25.8581V22.9186H25.4248V23.3149H25.2442V23.6927H25.4248V24.4207C25.4248 24.7709 25.6053 24.8815 25.8671 24.8815ZM23.6013 24.8538H24.0255V23.9968C24.0255 23.7941 24.1339 23.6835 24.2964 23.6835C24.4588 23.6835 24.5581 23.7941 24.5581 23.9968V24.8538H24.9824V23.8586C24.9824 23.5084 24.7928 23.2872 24.4679 23.2872C24.2512 23.2872 24.1248 23.407 24.0255 23.5361V23.3149H23.6013V24.8538ZM22.2201 23.9692C22.2562 23.7664 22.3736 23.6374 22.5451 23.6374C22.7256 23.6374 22.8339 23.7664 22.861 23.9692H22.2201ZM22.5902 24.8907C22.861 24.8907 23.0687 24.7801 23.2041 24.605L22.9603 24.3839C22.843 24.4945 22.7346 24.5405 22.5902 24.5405C22.4006 24.5405 22.2652 24.4392 22.2201 24.2364H23.2673C23.2673 24.1996 23.2763 24.1535 23.2763 24.1258C23.2763 23.6927 23.0416 23.2872 22.5451 23.2872C22.1027 23.2872 21.7958 23.6466 21.7958 24.089V24.0982C21.8048 24.5682 22.1389 24.8907 22.5902 24.8907ZM20.7306 24.8631H21.1188L21.7146 23.3149H21.2722L20.9292 24.347L20.5952 23.3149H20.1438L20.7306 24.8631ZM18.5731 24.8538H18.9974V23.9968C18.9974 23.7941 19.1057 23.6835 19.2682 23.6835C19.4307 23.6835 19.53 23.7941 19.53 23.9968V24.8538H19.9543V23.8586C19.9543 23.5084 19.7647 23.2872 19.4397 23.2872C19.2231 23.2872 19.0967 23.407 18.9974 23.5361V23.3149H18.5731V24.8538ZM17.7426 24.8538H18.1669V23.3149H17.7426V24.8538ZM17.7336 23.149H18.1849V22.762H17.7336V23.149Z" fill="#E96809"/>
</svg>
