<?xml version="1.0" encoding="utf-8"?>
<!-- Generator: Adobe Illustrator 23.1.1, SVG Export Plug-In . SVG Version: 6.00 Build 0)  -->
<svg version="1.1" id="Ebene_1" xmlns="http://www.w3.org/2000/svg" xmlns:xlink="http://www.w3.org/1999/xlink" x="0px" y="0px"
	 viewBox="0 0 841.9 379.8" style="enable-background:new 0 0 841.9 379.8;" xml:space="preserve">
<style type="text/css">
	.st0{clip-path:url(#SVGID_2_);fill:#FFFFFF;}
	.st1{clip-path:url(#SVGID_2_);fill:none;stroke:#FFFFFF;stroke-width:2.338;}
</style>
<g>
	<defs>
		<rect id="SVGID_1_" width="841.9" height="379.8"/>
	</defs>
	<clipPath id="SVGID_2_">
		<use xlink:href="#SVGID_1_"  style="overflow:visible;"/>
	</clipPath>
	<path class="st0" d="M738.1,244.2v-63.2h17.8c18.9,0,31.6,13,31.6,31.6v0.3c0,18.6-12.7,31.3-31.6,31.3H738.1z M715.1,265h40.9
		c32.9,0,55.7-22.9,55.7-52.4v-0.3c0-29.5-22.8-52.1-55.7-52.1h-40.9V265z M596.8,265h22.8v-66.6l50.7,66.6h19.6V160.3h-22.8v64.5
		l-49.1-64.5h-21.3V265z M520.8,245.6c-18.6,0-31.7-15-31.7-32.9v-0.3c0-18,12.9-32.6,31.4-32.6c18.6,0,31.7,15,31.7,32.9v0.3
		C552.2,230.9,539.4,245.6,520.8,245.6 M520.5,266.8c32.3,0,55.8-24.4,55.8-54.2v-0.3c0-29.8-23.2-53.9-55.5-53.9
		c-32.3,0-55.8,24.4-55.8,54.2v0.3C465,242.7,488.2,266.8,520.5,266.8 M400.9,265h23v-41.8l40.3-63h-26.2l-25.4,42.1l-25-42.1h-26.9
		l40.3,63.5V265z M271.2,265h79.8v-20.5h-56.9v-22h49.4V202h-49.4v-21.3h56.1v-20.5h-79V265z M185.6,244.8v-23h26.6
		c11.8,0,17.1,4.3,17.1,11.4v0.3c0,7.8-6.1,11.4-16.3,11.4H185.6z M185.6,202.6v-22.2h22.8c9.7,0,15.1,3.9,15.1,10.8v0.3
		c0,7.8-6.4,11.1-16.6,11.1H185.6z M163.1,265H213c23.6,0,39.2-9.6,39.2-28.7V236c0-14.1-7.5-21.1-19.6-25.7
		c7.5-4.2,13.8-10.8,13.8-22.6v-0.3c0-7.2-2.4-13-7.2-17.8c-6-6-15.4-9.3-27.4-9.3h-48.6V265z"/>
	<path class="st0" d="M336.1,142.2c11.5,0,18.3-6.1,23.5-12.9v11.4h22.8V60.5h-22.8v44.8c0,10.8-5.5,16.3-14.2,16.3
		s-13.8-5.5-13.8-16.3V60.5h-22.8v51.9C308.8,130.8,318.8,142.2,336.1,142.2 M265.3,140.7H288V31.4h-22.8V140.7z M205.1,122.9
		c-10.6,0-19.5-8.8-19.5-22.2v-0.3c0-13.3,8.8-22.2,19.5-22.2s19.6,8.8,19.6,22.2v0.3C224.7,114.2,215.7,122.9,205.1,122.9
		 M210.9,142.2c19,0,36.5-14.7,36.5-41.5v-0.3c0-26.8-17.8-41.5-36.5-41.5c-11.8,0-19.5,5.5-25,13V31.4h-22.8v109.3h22.8v-10.5
		C191.3,136.7,198.8,142.2,210.9,142.2"/>
	<path class="st0" d="M639.1,301.2h4.2l3.3-10.3l3.2,10.3h4.3l5.2-16.8h-4.7l-2.7,10.2l-3.2-10.2h-4.1l-3.1,10.2l-2.7-10.1H634
		L639.1,301.2z M623.7,297.4c-2.6,0-4.4-2.1-4.4-4.6v-0.1c0-2.5,1.6-4.6,4.3-4.6c2.6,0,4.4,2.2,4.4,4.6v0.1
		C628,295.3,626.4,297.4,623.7,297.4 M623.6,301.5c5.2,0,9.1-3.9,9.1-8.7v-0.1c0-4.8-3.8-8.6-9-8.6c-5.2,0-9.1,3.9-9.1,8.7v0.1
		C614.6,297.7,618.5,301.5,623.6,301.5 M602.9,301.1h4.7V295c0-4,1.9-5.9,5.1-5.9h0.2v-5c-2.8-0.1-4.4,1.4-5.3,3.7v-3.4h-4.7V301.1z
		 M589.8,301.1h4.7V295c0-4,1.9-5.9,5.1-5.9h0.2v-5c-2.8-0.1-4.4,1.4-5.3,3.7v-3.4h-4.7V301.1z M577.4,297.4c-2.6,0-4.4-2.1-4.4-4.6
		v-0.1c0-2.5,1.6-4.6,4.3-4.6c2.6,0,4.4,2.2,4.4,4.6v0.1C581.7,295.3,580.1,297.4,577.4,297.4 M577.3,301.5c5.2,0,9.1-3.9,9.1-8.7
		v-0.1c0-4.8-3.8-8.6-9-8.6c-5.2,0-9.1,3.9-9.1,8.7v0.1C568.3,297.7,572.2,301.5,577.3,301.5 M539.5,301.1h4.7v-9.3
		c0-2.2,1.1-3.4,2.9-3.4c1.8,0,2.8,1.2,2.8,3.4v9.3h4.7v-9.3c0-2.2,1.1-3.4,2.9-3.4c1.8,0,2.8,1.2,2.8,3.4v9.3h4.7v-10.9
		c0-4-2.1-6.1-5.6-6.1c-2.3,0-4,0.9-5.5,2.6c-0.9-1.7-2.5-2.6-4.7-2.6c-2.4,0-3.8,1.3-4.9,2.7v-2.4h-4.7V301.1z M527.1,297.4
		c-2.6,0-4.4-2.1-4.4-4.6v-0.1c0-2.5,1.6-4.6,4.3-4.6c2.6,0,4.4,2.2,4.4,4.6v0.1C531.4,295.3,529.8,297.4,527.1,297.4 M527,301.5
		c5.2,0,9.1-3.9,9.1-8.7v-0.1c0-4.8-3.8-8.6-9-8.6c-5.2,0-9.1,3.9-9.1,8.7v0.1C518,297.7,521.9,301.5,527,301.5 M512,301.4
		c1.6,0,2.7-0.4,3.7-1v-3.8c-0.7,0.4-1.5,0.6-2.3,0.6c-1.1,0-1.5-0.5-1.5-1.6v-7.1h3.9v-4.1h-3.9v-4.3h-4.7v4.3h-2v4.1h2v7.9
		C507.1,300.2,509.1,301.4,512,301.4 M484,295.8c-2.3,0-4.1-1.6-4.1-3.9v-0.1c0-2.3,1.7-3.9,4.1-3.9c2.3,0,4.1,1.6,4.1,3.9v0.1
		C488.1,294.2,486.3,295.8,484,295.8 M483.5,306.2c3.2,0,5.6-0.7,7.2-2.2c1.4-1.4,2.1-3.6,2.1-6.6v-12.9H488v2.2
		c-1.3-1.4-2.8-2.5-5.4-2.5c-3.8,0-7.4,2.8-7.4,7.8v0.1c0,5,3.5,7.8,7.4,7.8c2.5,0,4.1-1,5.5-2.7v0.8c0,3-1.5,4.6-4.8,4.6
		c-2.2,0-3.9-0.6-5.6-1.5l-1.6,3.6C478.2,305.5,480.7,306.2,483.5,306.2 M456.6,301.1h4.7v-9.3c0-2.2,1.2-3.4,3-3.4
		c1.8,0,2.9,1.2,2.9,3.4v9.3h4.7v-10.8c0-3.8-2.1-6.2-5.7-6.2c-2.4,0-3.8,1.3-4.9,2.7v-2.4h-4.7V301.1z M447.4,301.1h4.7v-16.7h-4.7
		V301.1z M447.2,282.6h5v-4.2h-5V282.6z M439.9,301.4c1.6,0,2.7-0.4,3.7-1v-3.8c-0.7,0.4-1.5,0.6-2.3,0.6c-1.1,0-1.5-0.5-1.5-1.6
		v-7.1h3.9v-4.1h-3.9v-4.3H435v4.3h-2v4.1h2v7.9C435,300.2,437,301.4,439.9,301.4 M414.8,301.1h4.7v-9.3c0-2.2,1.2-3.4,3-3.4
		c1.8,0,2.9,1.2,2.9,3.4v9.3h4.7v-10.8c0-3.8-2.1-6.2-5.7-6.2c-2.4,0-3.8,1.3-4.9,2.7v-2.4h-4.7V301.1z M399.5,291.5
		c0.4-2.2,1.7-3.6,3.6-3.6c2,0,3.2,1.4,3.5,3.6H399.5z M403.6,301.5c3,0,5.3-1.2,6.8-3.1l-2.7-2.4c-1.3,1.2-2.5,1.7-4.1,1.7
		c-2.1,0-3.6-1.1-4.1-3.3h11.6c0-0.4,0.1-0.9,0.1-1.2c0-4.7-2.6-9.1-8.1-9.1c-4.9,0-8.3,3.9-8.3,8.7v0.1
		C394.9,298,398.6,301.5,403.6,301.5 M383,301.2h4.3l6.6-16.8H389l-3.8,11.2l-3.7-11.2h-5L383,301.2z M359.1,301.1h4.7v-9.3
		c0-2.2,1.2-3.4,3-3.4c1.8,0,2.9,1.2,2.9,3.4v9.3h4.7v-10.8c0-3.8-2.1-6.2-5.7-6.2c-2.4,0-3.8,1.3-4.9,2.7v-2.4h-4.7V301.1z
		 M349.9,301.1h4.7v-16.7h-4.7V301.1z M349.8,282.6h5v-4.2h-5V282.6z"/>
	<polygon class="st1" points="31.5,60 139.7,288.3 340.6,347.3 232.5,119.1 	"/>
</g>
</svg>
